<svg width="73" height="63" viewBox="0 0 73 63" fill="none" xmlns="http://www.w3.org/2000/svg">
<rect width="43.8445" height="43.5068" rx="1" transform="matrix(0.994606 0.103723 -0.00826733 0.999966 0.35968 14.9051)" fill="#F7A914"/>
<rect width="32.7397" height="43.5068" rx="1" transform="matrix(0.886881 -0.461997 -0.0140718 0.999901 43.9638 19.4974)" fill="#D3941A"/>
<path d="M31.0128 0L72.831 4.63266L44.2079 19.5378L0.35968 14.9051L16.5998 7.04971L31.0128 0Z" fill="#D09012"/>
<path d="M40.7456 9.27112C40.8048 9.66075 40.6171 10.1259 40.1079 10.5663C39.6046 11.0015 38.8407 11.3568 37.932 11.4964C37.0234 11.6361 36.1888 11.5265 35.5792 11.2623C34.9624 10.995 34.6451 10.6075 34.5859 10.2178C34.5267 9.82818 34.7144 9.36307 35.2237 8.92267C35.7269 8.48745 36.4908 8.13216 37.3995 7.9925C38.3081 7.85285 39.1427 7.96247 39.7523 8.22665C40.3691 8.49398 40.6864 8.88148 40.7456 9.27112Z" fill="#1C0404" stroke="black"/>
<ellipse cx="65.9179" cy="42.4565" rx="2.72388" ry="3.56087" fill="#1C0404"/>
<ellipse cx="50.7239" cy="49.5609" rx="2.72388" ry="3.56087" fill="#1C0404"/>
<ellipse cx="65.7239" cy="19.5609" rx="2.72388" ry="3.56087" fill="#1C0404"/>
<ellipse cx="50.1194" cy="24.9261" rx="2.72388" ry="3.56087" fill="#1C0404"/>
<ellipse cx="13.8134" cy="45.8348" rx="3.81343" ry="3.83478" fill="#1C0404"/>
<ellipse cx="29.9627" cy="29.5826" rx="3.81343" ry="3.83478" fill="#1C0404"/>
</svg>
