<svg width="24" height="42" viewBox="0 0 24 42" fill="none" xmlns="http://www.w3.org/2000/svg">
<path d="M22.3026 16.7882C21.0424 17.0805 19.955 17.8305 19.4455 19.1239C19.1387 19.9088 18.7097 21.9363 17.5329 21.4119C16.9698 21.164 16.9788 20.3029 17.0443 19.7658C17.1843 18.6631 17.6491 17.6557 17.9679 16.607C18.2956 15.5202 18.5786 14.427 18.7812 13.3021C19.4604 9.57762 19.2727 5.28752 16.803 2.30988C16.3859 1.80142 15.3343 0.625619 14.6401 0.600196C14.2111 0.587485 14.6342 1.12772 14.7533 1.30886C14.9946 1.68066 15.1972 2.08425 15.3521 2.5069C17.1784 7.47706 12.6768 11.2619 9.71852 14.2077C8.30044 15.6219 7.16835 17.1218 6.14947 18.8728C6.04818 19.0412 5.82474 19.6069 5.53576 19.4893C5.19316 19.3495 5.15741 18.5137 5.05016 18.2023C4.84757 17.6049 4.53476 16.9534 4.13257 16.4863C3.35501 15.5774 2.26761 14.9641 1.09084 15.0467C1.04615 15.0499 0.918043 15.0721 0.760147 15.1102C0.512876 15.1675 -0.148501 15.2596 0.0302492 15.6854C0.122604 15.9047 0.393709 15.8856 0.587355 15.946C3.07199 16.7596 3.01538 19.537 2.61319 21.7678C1.88628 25.8291 -0.127647 29.668 1.30236 33.8437C2.98857 38.7661 8.26767 41.8391 13.0582 40.9938C14.366 40.765 15.8735 40.3138 17.0473 39.6401C18.2956 38.9219 19.663 37.9399 20.6372 36.834C21.8914 35.4135 22.6899 33.5926 22.9252 31.6637C23.2023 29.4328 22.5349 27.3291 21.9272 25.2222C21.1943 22.6799 20.3512 18.5296 23.3959 17.2871C23.5449 17.2235 23.8428 17.1758 23.9471 17.0074C24.3344 16.3909 22.4753 16.75 22.3026 16.7882Z" fill="#ED6C30"/>
<path d="M12.9449 34.0184C13.553 34.5859 14.4048 34.3086 14.9785 33.824C15.2854 33.5657 15.5492 33.2342 15.7213 32.8484C15.793 32.6826 15.8762 32.4722 15.8762 32.2841C15.8762 32.0323 15.7414 31.7836 15.7988 31.5253C16.2806 31.4201 16.8772 32.96 16.9374 33.3171C17.4193 36.1322 15.033 38.4531 12.7298 38.9026C8.84346 39.6582 6.60917 35.8739 7.0566 32.5137C7.33481 30.4223 8.5968 28.9844 9.88174 27.5498C10.9458 26.3606 11.9325 25.3404 12.2767 23.7942C12.3369 23.52 12.3225 23.0992 12.2508 22.8282C12.1906 22.5955 12.0759 22.3819 12.0701 22.13C12.0529 21.6008 12.5147 22.2926 12.6208 22.4265C13.9 24.0301 14.2643 26.3989 13.923 28.4711C13.7021 29.8101 12.8417 30.7666 12.5405 32.0482C12.3656 32.7783 12.3828 33.4892 12.9449 34.0184Z" fill="#FCC21B"/>
</svg>
