<svg width="177" height="177" viewBox="0 0 177 177" fill="none" xmlns="http://www.w3.org/2000/svg">
<circle cx="88.5" cy="88.5" r="88.5" fill="#D2D2CE"/>
<rect width="80.4769" height="79.4172" rx="1" transform="matrix(0.994666 0.103152 -0.00831361 0.999965 19.6602 58.2077)" fill="#F7A914"/>
<circle cx="74" cy="122" r="7" fill="#1C0404"/>
<circle cx="41.5" cy="117.5" r="6.5" fill="#1C0404"/>
<rect width="60.0262" height="79.4173" rx="1" transform="matrix(0.887934 -0.45997 -0.0141505 0.9999 99.7007 66.5906)" fill="#D3941A"/>
<path d="M75.9276 31L152.69 39.4565L100.149 66.6642L19.6602 58.2077L49.4708 43.8685L75.9276 31Z" fill="#D09012"/>
<path d="M94.2062 47.8604C94.3438 48.7608 93.8946 49.7401 92.896 50.5988C91.9038 51.4521 90.4249 52.1287 88.691 52.3937C86.9572 52.6587 85.3437 52.4548 84.1419 51.9368C82.9325 51.4155 82.2112 50.6151 82.0736 49.7147C81.9359 48.8143 82.3852 47.835 83.3837 46.9763C84.3759 46.123 85.8549 45.4464 87.5887 45.1814C89.3226 44.9164 90.9361 45.1203 92.1379 45.6383C93.3473 46.1596 94.0686 46.96 94.2062 47.8604Z" fill="#1C0404" stroke="black"/>
<circle cx="74" cy="85" r="7" fill="#1C0404"/>
<ellipse cx="140" cy="108.5" rx="5" ry="6.5" fill="#1C0404"/>
<ellipse cx="126" cy="92.5" rx="5" ry="6.5" fill="#1C0404"/>
<ellipse cx="111" cy="76.5" rx="5" ry="6.5" fill="#1C0404"/>
<circle cx="41.5" cy="81.5" r="6.5" fill="#1C0404"/>
</svg>
