<svg width="43" height="35" viewBox="0 0 43 35" fill="none" xmlns="http://www.w3.org/2000/svg">
<path d="M30.3333 34V30.3333C30.3333 28.3884 29.5607 26.5232 28.1854 25.1479C26.8102 23.7726 24.9449 23 23 23H8.33333C6.38841 23 4.52315 23.7726 3.14788 25.1479C1.77262 26.5232 1 28.3884 1 30.3333V34" stroke="black" stroke-width="2" stroke-linecap="round" stroke-linejoin="round"/>
<path d="M15.6667 15.6667C19.7168 15.6667 23 12.3834 23 8.33333C23 4.28325 19.7168 1 15.6667 1C11.6166 1 8.33337 4.28325 8.33337 8.33333C8.33337 12.3834 11.6166 15.6667 15.6667 15.6667Z" stroke="black" stroke-width="2" stroke-linecap="round" stroke-linejoin="round"/>
<path d="M41.3334 34V30.3333C41.3322 28.7085 40.7914 27.1301 39.7959 25.8459C38.8004 24.5617 37.4066 23.6445 35.8334 23.2383" stroke="black" stroke-width="2" stroke-linecap="round" stroke-linejoin="round"/>
<path d="M28.5 1.23833C30.0774 1.64222 31.4756 2.55962 32.474 3.8459C33.4724 5.13219 34.0144 6.71419 34.0144 8.3425C34.0144 9.97081 33.4724 11.5528 32.474 12.8391C31.4756 14.1254 30.0774 15.0428 28.5 15.4467" stroke="black" stroke-width="2" stroke-linecap="round" stroke-linejoin="round"/>
</svg>
